<?xml version="1.0" encoding="utf-8"?>
<svg width="86" height="19" viewBox="0 0 456.28 71" fill="none" xmlns="http://www.w3.org/2000/svg">
  <path d="M 132.797 69.474 L 146.397 69.474 L 118.597 -0.226 L 109.197 -0.226 L 81.297 69.474 L 94.897 69.474 L 100.197 55.074 L 127.497 55.074 L 132.797 69.474 Z M 104.497 43.574 L 113.897 18.174 L 123.297 43.574 L 104.497 43.574 Z M 153.515 10.874 L 166.115 10.874 L 166.115 -0.226 L 153.515 -0.226 L 153.515 10.874 Z M 153.815 69.474 L 165.815 69.474 L 165.815 20.174 L 153.815 20.174 L 153.815 69.474 Z M 205.092 19.174 C 199.492 19.174 193.992 22.474 191.892 28.574 L 191.892 20.174 L 179.791 20.174 L 179.791 69.474 L 191.792 69.474 L 191.792 44.674 C 191.792 35.374 195.392 30.874 202.692 30.874 C 205.092 30.874 206.992 31.474 208.692 32.574 L 214.492 21.974 C 211.292 19.974 208.392 19.174 205.092 19.174 Z M 222.119 69.474 L 264.419 69.474 L 264.419 57.974 L 234.619 57.974 L 234.619 -0.226 L 222.119 -0.226 L 222.119 69.474 Z M 291.958 19.174 C 282.958 19.174 275.658 22.674 269.758 29.774 L 278.458 37.074 C 282.058 32.274 286.758 29.674 291.758 29.674 C 297.458 29.674 301.058 32.974 301.058 38.374 L 301.058 39.774 L 288.758 39.774 C 283.158 39.774 278.958 40.474 275.658 41.974 C 270.858 44.174 268.258 48.574 268.258 54.374 C 268.258 63.774 275.658 70.474 286.058 70.474 C 292.558 70.474 298.158 67.674 301.058 63.074 L 302.058 69.474 L 313.058 69.474 L 313.058 38.374 C 313.058 26.474 304.958 19.174 291.958 19.174 Z M 287.958 60.274 C 283.158 60.274 280.258 58.074 280.258 54.574 C 280.258 52.774 280.958 51.374 282.258 50.474 C 283.858 49.274 286.258 48.774 290.358 48.774 L 301.058 48.774 C 301.058 55.174 295.158 60.274 287.958 60.274 Z M 351.99 19.174 C 346.39 19.174 340.89 21.474 337.79 25.174 L 337.79 -0.226 L 325.79 -0.226 L 325.79 69.474 L 337.79 69.474 L 337.79 64.574 C 341.19 68.774 346.69 70.474 351.99 70.474 C 365.39 70.474 372.79 59.574 372.79 44.774 C 372.79 28.674 364.09 19.174 351.99 19.174 Z M 349.09 59.374 C 340.39 59.374 336.69 53.074 336.69 44.874 C 336.69 36.674 340.39 30.074 348.99 30.074 C 356.99 30.074 360.79 35.674 360.79 44.874 C 360.79 53.974 357.09 59.374 349.09 59.374 Z M 398.514 70.474 C 407.814 70.474 417.714 65.474 417.714 53.974 C 417.714 35.974 391.914 40.374 391.914 32.874 C 391.914 30.574 394.314 28.674 398.214 28.674 C 403.614 28.674 406.314 31.874 408.014 34.974 L 417.314 29.874 C 413.614 23.174 407.114 19.174 398.614 19.174 C 389.114 19.174 380.514 24.074 380.514 33.574 C 380.514 51.874 405.914 46.374 405.914 54.674 C 405.914 57.274 403.514 60.474 397.914 60.474 C 391.314 60.474 388.714 55.974 387.414 52.374 L 377.814 56.674 C 380.214 64.174 388.114 70.474 398.514 70.474 Z M 430.538 69.474 " fill="#335EEA" style=""/>
  <path d="M 37.321 9.66 C 34.62 7.049 35.756 2.489 39.367 1.455 C 41.102 0.958 42.97 1.458 44.224 2.756 L 73.514 32.047 C 75.363 33.895 75.428 36.87 73.66 38.797 L 46.812 68.088 C 44.271 70.856 39.685 69.838 38.557 66.253 C 38.033 64.589 38.438 62.772 39.616 61.487 L 63.307 35.645 L 37.321 9.66 Z" fill="#335EEA" style=""/>
  <path d="M 3.149 9.66 C 0.448 7.049 1.584 2.489 5.197 1.455 C 6.931 0.958 8.8 1.458 10.052 2.756 L 39.342 32.047 C 41.19 33.895 41.257 36.87 39.489 38.797 L 12.64 68.088 C 10.099 70.856 5.514 69.838 4.385 66.253 C 3.861 64.589 4.266 62.772 5.444 61.487 L 29.134 35.645 L 3.149 9.66 Z" fill="#335EEA" opacity=".3" style=""/>
</svg>